{"title":"Rise.of.the.Planet.of.the.Apes.2011.BRRip.XviD.AC3-PRESTiGE","uid":6801457,"size":1949863325,"categoryP":"video","categoryS":"movies","magnet":"?xt=urn:btih:c467d45b28b805ce0c5c39f5209d05718738c81e&amp;dn=Rise.of.the.Planet.of.the.Apes.2011.BRRip.XviD.AC3-PRESTiGE&amp;tr=udp%3A%2F%2Ftracker.openbittorrent.com%3A80&amp;tr=udp%3A%2F%2Fopen.demonii.com%3A1337&amp;tr=udp%3A%2F%2Ftracker.coppersurfer.tk%3A6969&amp;tr=udp%3A%2F%2Fexodus.desync.com%3A6969","seeders":0,"leechers":0,"uploader":"sceneline","files":6,"time":1320695370,"description":"- &lt;a href=&quot;\nhttp://www.Speed.Cd&quot; rel=&quot;nofollow&quot; target=&quot;_NEW&quot;&gt;\nhttp://www.Speed.Cd&lt;/a&gt;      fast  and The Hottest Private Tracker on the net\n\n   signup is open now\n\nPlease Seed back to make the speed Faster!!!\n\n------------------nfo--------------------------\n-[pre][img]http://i824.photobucket.com/albums/zz161/akosipalos/rise.png[/img]   \n            \n*******************************************************************************\n           Rise.of.the.Planet.of.the.Apes.2011.BRRip.XviD.AC3-PRESTiGE\n*******************************************************************************\n\n-------------------------------------------------------------------------------\n                              General Information\n-------------------------------------------------------------------------------\n\nTiTLE............: Rise.of.the.Planet.of.the.Apes.2011.BRRip.XviD.AC3-PRESTiGE\n\niMDB.............: http://www.imdb.com/title/tt1318514/\n\nGENRE............: Action | Drama | Sci-Fi \n\nLANGUAGE.........: English \n\nFORMAT...........: AVi\n\nSOURCE...........: 720p.DTS.2Audio.x264-CHD MANY THANKS!!!\n\nFiLE SiZE........: 1.79 GB\n\nSAMPLE iNCLUDED..: Yes\n\nSUBS.............: NoNE\n\nDURATiON.........: 1h 44mn\n\nENCODED by.......: [b][color=maroon]akosipalos[/color][/b]\n\n\nViDEO iNFO:\n\nID                               : 0\nFormat                           : MPEG-4 Visual\nFormat profile                   : Advanced Simple@L5\nFormat settings, BVOP            : 2\nFormat settings, QPel            : No\nFormat settings, GMC             : No warppoints\nFormat settings, Matrix          : Default (H.263)\nCodec ID                         : XVID\nCodec ID/Hint                    : XviD\nDuration                         : 1h 44mn\nBit rate                         : 1 980 Kbps\nWidth                            : 720 pixels\nHeight                           : 304 pixels\nDisplay aspect ratio             : 2.35:1\nFrame rate                       : 23.976 fps\nColor space                      : YUV\nChroma subsampling               : 4:2:0\nBit depth                        : 8 bits\nScan type                        : Progressive\nCompression mode                 : Lossy\nBits/(Pixel*Frame)               : 0.377\nStream size                      : 1.45 GiB (81%)\nWriting library                  : XviD 1.2.1 (UTC 2008-12-04)\n\n\nAUDiO iNFO:\n\nID                               : 1\nFormat                           : AC-3\nFormat/Info                      : Audio Coding 3\nMode extension                   : CM (complete main)\nCodec ID                         : 2000\nDuration                         : 1h 44mn\nBit rate mode                    : Constant\nBit rate                         : 448 Kbps\nChannel(s)                       : 6 channels\nChannel positions                : Front: L C R, Side: L R, LFE\nSampling rate                    : 48.0 KHz\nBit depth                        : 16 bits\nCompression mode                 : Lossy\nStream size                      : 336 MiB (18%)\nAlignment                        : Aligned on interleaves\nInterleave, duration             : 64 ms (1.53 video frames)\nInterleave, preload duration     : 192 ms\nTitle                            : T2_Audio - English\n\n\n-------------------------------------------------------------------------------\n                                 PLOT:\n-------------------------------------------------------------------------------\n\n\nDuring experiments to find a cure for Alzheimer's disease, a genetically-enhanced chimpanzee \nuses its greater intelligence to lead other apes to freedom.   \n\n \n-------------------------------------------------------------------------------\n                                 CAST:\n-------------------------------------------------------------------------------\n\n\nJames Franco \n\nAndy Serkis \n\nFreida Pinto\n\n\n-------------------------------------------------------------------------------\n                               SCREENS:\n-------------------------------------------------------------------------------\n\n\n[img]http://i824.photobucket.com/albums/zz161/akosipalos/1-131.png[/img]\n\n[img]http://i824.photobucket.com/albums/zz161/akosipalos/2-111.png[/img]\n\n[img]http://i824.photobucket.com/albums/zz161/akosipalos/3-111.png[/img]\n\n[img]http://i824.photobucket.com/albums/zz161/akosipalos/4-106.png[/img]\n\n[img]http://i824.photobucket.com/albums/zz161/akosipalos/5-94.png[/img]\n\n[img]http://i824.photobucket.com/albums/zz161/akosipalos/6-23.png[/img]\n\n[img]http://i824.photobucket.com/albums/zz161/akosipalos/7-7.png[/img]\n\n\n-------------------------------------------------------------------------------\n                             Release Notes\n-------------------------------------------------------------------------------\n\nWE DONT RELEASE EVERYTHING TO OTHERS SITES YOU WANT MORE OF OUR STUFF COME FIND US AT .......\n\nWE ARE LOOKING FOR SUPPLIERS BLURAY CAM R5 PRE RETAIL DVD GOT SOMETHING WE MIGHT LIKE WHEN YOU FIND US TELL US.......\n\n\n\nENCODER'S - ANYTHING AT ALL EMAIL US AT..... &lt;a class=&quot;__cf_email__&quot; href=&quot;/cdn-cgi/l/email-protection&quot; data-cfemail=&quot;0474766177706d6361446c71776c69656d682a6961&quot;&gt;[email&amp;#160;protected]&lt;/a&gt;&lt;script cf-hash='f9e31' type=&quot;text/javascript&quot;&gt;\n/* &lt;![CDATA[ */!function(){try{var t=&quot;currentScript&quot;in document?document.currentScript:function(){for(var t=document.getElementsByTagName(&quot;script&quot;),e=t.length;e--;)if(t[e].getAttribute(&quot;cf-hash&quot;))return t[e]}();if(t&amp;&amp;t.previousSibling){var e,r,n,i,c=t.previousSibling,a=c.getAttribute(&quot;data-cfemail&quot;);if(a){for(e=&quot;&quot;,r=parseInt(a.substr(0,2),16),n=2;a.length-n;n+=2)i=parseInt(a.substr(n,2),16)^r,e+=String.fromCharCode(i);e=document.createTextNode(e),c.parentNode.replaceChild(e,c)}}}catch(u){}}();/* ]]&gt; */&lt;/script&gt;\n\n** ** ** ** ** ** ** ** **\n\nPRESTiGE is the level of respect at which one is regarded by others....RIzE Above Or Sink Below...\n\n\n-------------------------------------------------------------------------------\n                                 GREETZ:\n-------------------------------------------------------------------------------\n\n\n[b]| Twisted | Bigguy | CTFX | Whitestag13 | Jungledave | PA4U2C | mtyy | floridajoe | marsby | cld | Stortrapp | Stoner | Rock | Ulap | rizal | mannilim | musikera | centserick2 | AMB | RiZAL Team RG | rock3r | canislupus | sickie | fun2knytz and To All Encoders Past And Present...[/b]\n\n\n[img]http://i824.photobucket.com/albums/zz161/akosipalos/PRESTiGE-3.png[/img]\n\n\n[b][color=red]PRESTiGE[/color] is the level of respect at which one is regarded by others....RIzE Above Or Sink Below...[/b]\n\n\n-------------------------------------------------------------------------------\nGenerated with Cool NFO Creator - http://fly.to/coolbeans\n-------------------------------------------------------------------------------\n","torrent":{"xt":"urn:btih:c467d45b28b805ce0c5c39f5209d05718738c81e","amp;dn":"Rise.of.the.Planet.of.the.Apes.2011.BRRip.XviD.AC3-PRESTiGE","amp;tr":["udp%3A%2F%2Ftracker.openbittorrent.com%3A80","udp%3A%2F%2Fopen.demonii.com%3A1337","udp%3A%2F%2Ftracker.coppersurfer.tk%3A6969","udp%3A%2F%2Fexodus.desync.com%3A6969"],"infoHash":"c467d45b28b805ce0c5c39f5209d05718738c81e","infoHashBuffer":{"type":"Buffer","data":[196,103,212,91,40,184,5,206,12,92,57,245,32,157,5,113,135,56,200,30]},"announce":[],"urlList":[]}}